<svg xmlns="http://www.w3.org/2000/svg" viewBox="0 0 980.43 154"><defs><style>.cls-1{fill:#00de85;}</style></defs><g id="Capa_2" data-name="Capa 2"><g id="Capa_1-2" data-name="Capa 1"><path d="M267,96.9c-9.35,0-14.63-5.28-14.63-14.45v-37h25.78V24.78H251.9V0L228,.2,228,11.4a13.6,13.6,0,0,1-14,13.38h-4.54V45.43h17.17V85.85c0,21.07,12.85,33.92,33.74,33.92h18.25V96.9Z"/><path class="cls-1" d="M104.25,24.79,62.85,118.5C51.47,144.24,41.46,154,20.15,154H9.56V130.91h8.89c12.38,0,15.59-3.3,21.43-17.65l.36-.77L0,24.79H27.94L53.28,83.22,76.94,24.79Z"/><path class="cls-1" d="M180.62,72.28c0-15.39-10.5-26-25.31-26S130,56.89,130,72.28s10.5,26,25.31,26,25.31-10.64,25.31-26m-76.65,0c0-28.82,21.92-50.18,51.34-50.18s51.34,21.4,51.34,50.18c0,28.63-22.06,50.17-51.34,50.17S104,100.91,104,72.28"/><path d="M473.61,72.27c0-14.92-10.94-26-25.86-26s-25.88,11.14-25.88,26,11,26,25.88,26,25.86-11.12,25.86-26M449.85,22.1c28.61,0,49.76,21.39,49.76,50.18s-21.15,50.32-49.76,50.32a45.58,45.58,0,0,1-26.13-8V154H398V24.79h17l4.39,8.63A45.36,45.36,0,0,1,449.86,22.1Z"/><path d="M570.44,24.26V48.48H559.29c-14.47,0-20.19,6.41-20.19,21.94v49.34H513.42v-95h16.47l4.56,11.63C541.22,28,549.8,24.26,562,24.26Z"/><path d="M921.91,72.28c0-15.39-10.5-26-25.31-26s-25.31,10.64-25.31,26,10.51,26,25.31,26,25.31-10.64,25.31-26m-76.65,0c0-28.82,21.92-50.18,51.34-50.18s51.34,21.4,51.34,50.18c0,28.63-22.06,50.17-51.34,50.17s-51.34-21.54-51.34-50.17"/><path d="M826.24,96.91c-9.36,0-14.64-5.28-14.64-14.46v-37h25.78V24.79H811.17V0l-23.92.2,0,11.19a13.6,13.6,0,0,1-14,13.39h-4.54V45.44h17.18V85.86c0,21.07,12.84,33.91,33.73,33.91h18.25V96.91Z"/><path d="M684.13,93.05l24.8-4.57c.13,8.47,6.61,12.68,15.81,12.68,7.14,0,13.52-3.22,13.52-9.57,0-6.5-8.24-8.46-18.28-10.14-15.18-2.53-34.47-6.59-34.47-29,0-18,15.28-30.38,38.21-30.38,21.49,0,36.06,11.21,37.88,28.25l-24.18,3.49c-.1-7.55-5.39-11.28-14.34-11.28-8,0-12.72,3.67-12.72,9.1,0,6.34,8.11,7.81,18,9.6,15.5,2.78,35.28,6.06,35.28,29.19,0,19.38-15.84,32-39.83,32h0c-21.12,0-36-10.67-39.25-27.25"/><path d="M601.73,61.93h46C644.13,50.32,635.8,44,624.26,44s-19.54,6.67-22.53,17.91m66.92,33.33c-8.29,16.8-24.82,27.19-44.38,27.19-28,0-49.27-21.71-49.27-50.17,0-28.61,21.08-50.18,49.27-50.18,29.16,0,49.17,22.48,49.17,49.84a59.51,59.51,0,0,1-.5,7.53H601.06c2.23,13,10.75,20.1,23.2,20.1,8.93,0,16.25-4.22,20.16-11Z"/><path d="M312.66,61.93h46c-3.63-11.61-12-17.91-23.5-17.91s-19.54,6.67-22.53,17.91m66.92,33.33c-8.3,16.8-24.82,27.19-44.38,27.19-28.05,0-49.27-21.71-49.27-50.17,0-28.61,21.08-50.18,49.27-50.18,29.16,0,49.16,22.48,49.16,49.84a57.71,57.71,0,0,1-.5,7.53H312c2.23,13,10.75,20.1,23.2,20.1,8.93,0,16.25-4.22,20.16-11Z"/><path class="cls-1" d="M980.43,112.75c0-8.53-5.83-14.44-14-14.44s-14,5.91-14,14.44,5.83,14.45,14,14.45,14-5.91,14-14.45"/></g></g></svg>